<?xml version="1.0" encoding="UTF-8" standalone="no"?>
<!DOCTYPE svg PUBLIC "-//W3C//DTD SVG 1.1//EN" "http://www.w3.org/Graphics/SVG/1.1/DTD/svg11.dtd">
<svg version="1.1" xmlns="http://www.w3.org/2000/svg" xmlns:xlink="http://www.w3.org/1999/xlink" preserveAspectRatio="xMidYMid meet" viewBox="0 0 640 640" width="640" height="640"><defs><path d="M580.85 70C596.95 70 610 83.05 610 99.15C610 113.32 610 125.99 610 139.99C610 156.56 596.56 170 579.99 170C469.99 170 169.93 170 59.91 170C43.39 170 30 156.61 30 140.09C30 126.07 30 114.33 30 100.42C30 83.62 43.62 70 60.42 70C170.33 70 470.68 70 580.85 70Z" id="bpLgpl1A6"></path><path d="M511.7 270C527.33 270 540 282.67 540 298.3C540 312.64 540 327.33 540 341.67C540 357.31 527.31 370 511.67 370C429.33 370 211.51 370 129.38 370C113.15 370 100 356.85 100 340.62C100 326.49 100 312.85 100 298.57C100 282.79 112.79 270 128.57 270C210.85 270 429.36 270 511.7 270Z" id="bhBKLP3WA"></path><path d="M379.57 470C390.85 470 400 479.15 400 490.43C400 506.35 400 533.63 400 549.54C400 560.84 390.84 570 379.54 570C351.63 570 288.4 570 260.51 570C249.18 570 240 560.82 240 549.49C240 533.6 240 506.15 240 490.19C240 479.04 249.04 470 260.19 470C288.15 470 351.65 470 379.57 470Z" id="aNSEl1MAq"></path></defs><g><g><g><use xlink:href="#bpLgpl1A6" opacity="1" fill="#000000" fill-opacity="1"></use></g><g><use xlink:href="#bhBKLP3WA" opacity="1" fill="#000000" fill-opacity="1"></use></g><g><use xlink:href="#aNSEl1MAq" opacity="1" fill="#000000" fill-opacity="1"></use></g></g></g></svg>