<?xml version="1.0" encoding="UTF-8" standalone="no"?>
<!DOCTYPE svg PUBLIC "-//W3C//DTD SVG 1.1//EN" "http://www.w3.org/Graphics/SVG/1.1/DTD/svg11.dtd">
<svg version="1.1" xmlns="http://www.w3.org/2000/svg" xmlns:xlink="http://www.w3.org/1999/xlink" preserveAspectRatio="xMidYMid meet" viewBox="0 0 640 640" width="1024" height="1024"><defs><path d="M562.38 50C588.68 50 610 71.32 610 97.62C610 116.09 610 122.94 610 141.17C610 168.14 588.14 190 561.17 190C454.94 190 184.17 190 77.71 190C51.36 190 30 168.64 30 142.29C30 123.83 30 114.4 30 95.5C30 70.37 50.37 50 75.5 50C182.4 50 455.91 50 562.38 50Z" id="aNkE8I5JY"></path><path d="M481.8 250C513.94 250 540 276.06 540 308.2C540 324.56 540 313.94 540 329.93C540 363.11 513.11 390 479.93 390C403.94 390 234.87 390 158.58 390C126.23 390 100 363.77 100 331.42C100 315.13 100 324.15 100 307.68C100 275.83 125.83 250 157.68 250C234.15 250 405.44 250 481.8 250Z" id="d2j9c490IS"></path><path d="M364.98 450C384.32 450 400 465.68 400 485.02C400 506.02 400 532.29 400 552.87C400 573.37 383.37 590 362.87 590C338.29 590 300.02 590 275.02 590C255.68 590 240 574.32 240 554.98C240 533.98 240 507.71 240 487.13C240 466.63 256.63 450 277.13 450C301.71 450 339.98 450 364.98 450Z" id="a16iuAS5WX"></path></defs><g><g><g><use xlink:href="#aNkE8I5JY" opacity="1" fill="#000000" fill-opacity="1"></use></g><g><use xlink:href="#d2j9c490IS" opacity="1" fill="#000000" fill-opacity="1"></use></g><g><use xlink:href="#a16iuAS5WX" opacity="1" fill="#000000" fill-opacity="1"></use></g></g></g></svg>