<?xml version="1.0" encoding="UTF-8" standalone="no"?>
<!DOCTYPE svg PUBLIC "-//W3C//DTD SVG 1.1//EN" "http://www.w3.org/Graphics/SVG/1.1/DTD/svg11.dtd">
<svg version="1.1" xmlns="http://www.w3.org/2000/svg" xmlns:xlink="http://www.w3.org/1999/xlink" preserveAspectRatio="xMidYMid meet" viewBox="0 0 640 640" width="1024" height="1024"><defs><path d="M531.25 59.77C535.92 59.76 539.71 63.55 539.72 68.22C539.83 170.53 540.16 468.99 540.27 571.3C540.28 575.97 536.49 579.76 531.82 579.77C445.51 579.86 195.05 580.14 108.74 580.23C104.07 580.24 100.28 576.45 100.27 571.78C100.16 469.47 99.83 171.01 99.72 68.7C99.71 64.03 103.5 60.24 108.17 60.23C194.48 60.14 444.94 59.86 531.25 59.77Z" id="aRSY0pl0w"></path><mask id="maskdtnlHL7tm" x="95.72" y="55.77" width="448.55" height="528.47" maskUnits="userSpaceOnUse"><rect x="95.72" y="55.77" width="448.55" height="528.47" fill="white"></rect><use xlink:href="#aRSY0pl0w" opacity="1" fill="black"></use></mask><path d="M530.03 60C535.54 60 540 64.46 540 69.97C540 171.97 540 468.03 540 570.03C540 575.54 535.54 580 530.03 580C492.03 580 387.97 580 349.97 580C344.46 580 340 575.54 340 570.03C340 468.03 340 171.97 340 69.97C340 64.46 344.46 60 349.97 60C387.97 60 492.03 60 530.03 60Z" id="dBOtYk1K8"></path><path d="M320 60L410 60L410 580L320 580L320 60Z" id="a5W7H0iC"></path><path d="M540 450L100 450" id="a2dsh6mVj0"></path><path d="M140 580L140 60" id="l2WGbHL2bG"></path><path d="M180 580L180 60" id="j6y8NGMTC"></path><path d="M220 580L220 60" id="bYfg75KWv"></path><path d="M260 580L260 60" id="c8wEkd3gz"></path><path d="M300 580L300 60" id="c18hYfD0ar"></path><path d="M340 580L340 60" id="amJKBFDOk"></path><path d="M380 580L380 60" id="a1iYDUXVw"></path><path d="M420 580L420 60" id="d284Xu3aXX"></path><path d="M460 580L460 60" id="gamDFclFK"></path><path d="M540 80L100 80" id="cqAwGwUxd"></path><path d="M540 130L100 130" id="ai88bB2u8"></path><path d="M540 170L100 170" id="fjTiWYNaI"></path><path d="M540 210L100 210" id="beffC5b21"></path><path d="M540 250L100 250" id="b232ZeJQkd"></path><path d="M540 290L100 290" id="afdKNGXvF"></path><path d="M540 330L100 330" id="a67CZvjeqx"></path><path d="M540 370L100 370" id="b2FslNE5A1"></path><path d="M540 410L100 410" id="b1gmaIaFaT"></path><path d="M500 580L500 60" id="i4cpWOTsVJ"></path><path d="M540 490L100 490" id="c11xuTLffp"></path><path d="M540 530L100 530" id="dv4M5B4eu"></path><path d="M540 570L100 570" id="bSGAwIx3t"></path><path d="M200 100L510 100L510 130L200 130L200 100Z" id="h1mdnkDe3G"></path><path d="M173.12 202.77C173.12 214.4 163.46 223.84 151.56 223.84C139.66 223.84 130 214.4 130 202.77C130 191.15 139.66 181.71 151.56 181.71C163.46 181.71 173.12 191.15 173.12 202.77Z" id="amAOnm7EC"></path><path d="M173.12 382.77C173.12 394.4 163.46 403.84 151.56 403.84C139.66 403.84 130 394.4 130 382.77C130 371.15 139.66 361.71 151.56 361.71C163.46 361.71 173.12 371.15 173.12 382.77Z" id="b5lJ6w1hUs"></path><path d="M173.12 112.77C173.12 124.4 163.46 133.84 151.56 133.84C139.66 133.84 130 124.4 130 112.77C130 101.15 139.66 91.71 151.56 91.71C163.46 91.71 173.12 101.15 173.12 112.77Z" id="goNuC4ObH"></path><path d="M180 170C167.06 190.3 158.42 206.19 154.06 217.67C153.82 218.3 153.46 218.28 152.98 217.61C148.31 211.09 142.09 205.82 134.9 202.27C134.54 202.09 133.64 201.65 132.2 200.94" id="a1pTlvM7yW"></path><path d="M180 80C166.47 100.3 157.42 116.19 152.87 127.67C152.73 128.01 152.53 128.01 152.26 127.67C147.01 121.1 140.33 115.81 132.72 112.22C132.36 112.05 131.45 111.62 130 110.94" id="c5ertZBjtD"></path><path d="M200 370L510 370L510 400L200 400L200 370Z" id="b5XPYYyreB"></path><path d="M200 460L510 460L510 490L200 490L200 460Z" id="a1uawFf3Yv"></path><path d="M-16.51 357.14L-16.51 357.14L-16.35 356.94L-16.04 357.3L-16.2 357.5L-16.35 357.33L-16.77 357.84L-16.94 357.64L-16.51 357.14Z" id="c3ac3IQiQL"></path><path d="M173.12 292.77C173.12 304.4 163.46 313.84 151.56 313.84C139.66 313.84 130 304.4 130 292.77C130 281.15 139.66 271.71 151.56 271.71C163.46 271.71 173.12 281.15 173.12 292.77Z" id="a6s1HREVes"></path><path d="M173.12 472.77C173.12 484.4 163.46 493.84 151.56 493.84C139.66 493.84 130 484.4 130 472.77C130 461.15 139.66 451.71 151.56 451.71C163.46 451.71 173.12 461.15 173.12 472.77Z" id="d2AkjAnfjc"></path><path d="M180 260C167.06 280.3 158.42 296.19 154.06 307.67C153.82 308.3 153.46 308.28 152.98 307.61C148.31 301.09 142.09 295.82 134.9 292.27C134.54 292.09 133.64 291.65 132.2 290.94" id="b3QpCRn94b"></path><path d="M200 192.14L510 192.14L510 220L200 220L200 192.14Z" id="b1dnxZzWF"></path><path d="M200 280L510 280L510 310L200 310L200 280Z" id="b6TAVKogW"></path></defs><g><g><g><g><filter id="shadow12850790" x="88.72" y="48.77" width="465.55" height="548.47" filterUnits="userSpaceOnUse" primitiveUnits="userSpaceOnUse"><feFlood></feFlood><feComposite in2="SourceAlpha" operator="in"></feComposite><feGaussianBlur stdDeviation="0"></feGaussianBlur><feOffset dx="3" dy="6" result="afterOffset"></feOffset><feFlood flood-color="#000000" flood-opacity="0.5"></feFlood><feComposite in2="afterOffset" operator="in"></feComposite><feMorphology operator="dilate" radius="0"></feMorphology><feComposite in2="SourceAlpha" operator="out"></feComposite></filter><path d="M531.25 59.77C535.92 59.76 539.71 63.55 539.72 68.22C539.83 170.53 540.16 468.99 540.27 571.3C540.28 575.97 536.49 579.76 531.82 579.77C445.51 579.86 195.05 580.14 108.74 580.23C104.07 580.24 100.28 576.45 100.27 571.78C100.16 469.47 99.83 171.01 99.72 68.7C99.71 64.03 103.5 60.24 108.17 60.23C194.48 60.14 444.94 59.86 531.25 59.77Z" id="c1pSN3U3l7" fill="white" fill-opacity="1" filter="url(#shadow12850790)"></path></g><use xlink:href="#aRSY0pl0w" opacity="1" fill="#fdd835" fill-opacity="1"></use><g mask="url(#maskdtnlHL7tm)"><use xlink:href="#aRSY0pl0w" opacity="1" fill-opacity="0" stroke="#212121" stroke-width="4" stroke-opacity="1"></use></g></g><g><use xlink:href="#dBOtYk1K8" opacity="1" fill="#fbc02d" fill-opacity="1"></use></g><g><use xlink:href="#a5W7H0iC" opacity="1" fill="#fbc02d" fill-opacity="1"></use></g><g><g><use xlink:href="#a2dsh6mVj0" opacity="1" fill-opacity="0" stroke="#ff5722" stroke-width="1" stroke-opacity="0.3"></use></g></g><g><g><use xlink:href="#l2WGbHL2bG" opacity="1" fill-opacity="0" stroke="#ff5722" stroke-width="1" stroke-opacity="0.3"></use></g></g><g><g><use xlink:href="#j6y8NGMTC" opacity="1" fill-opacity="0" stroke="#ff5722" stroke-width="1" stroke-opacity="0.3"></use></g></g><g><g><use xlink:href="#bYfg75KWv" opacity="1" fill-opacity="0" stroke="#ff5722" stroke-width="1" stroke-opacity="0.3"></use></g></g><g><g><use xlink:href="#c8wEkd3gz" opacity="1" fill-opacity="0" stroke="#ff5722" stroke-width="1" stroke-opacity="0.3"></use></g></g><g><g><use xlink:href="#c18hYfD0ar" opacity="1" fill-opacity="0" stroke="#ff5722" stroke-width="1" stroke-opacity="0.3"></use></g></g><g><g><use xlink:href="#amJKBFDOk" opacity="1" fill-opacity="0" stroke="#ff5722" stroke-width="1" stroke-opacity="0.3"></use></g></g><g><g><use xlink:href="#a1iYDUXVw" opacity="1" fill-opacity="0" stroke="#ff5722" stroke-width="1" stroke-opacity="0.3"></use></g></g><g><g><use xlink:href="#d284Xu3aXX" opacity="1" fill-opacity="0" stroke="#ff5722" stroke-width="1" stroke-opacity="0.3"></use></g></g><g><g><use xlink:href="#gamDFclFK" opacity="1" fill-opacity="0" stroke="#ff5722" stroke-width="1" stroke-opacity="0.3"></use></g></g><g><g><use xlink:href="#cqAwGwUxd" opacity="1" fill-opacity="0" stroke="#ff5722" stroke-width="1" stroke-opacity="0.3"></use></g></g><g><g><use xlink:href="#ai88bB2u8" opacity="1" fill-opacity="0" stroke="#ff5722" stroke-width="1" stroke-opacity="0.3"></use></g></g><g><g><use xlink:href="#fjTiWYNaI" opacity="1" fill-opacity="0" stroke="#ff5722" stroke-width="1" stroke-opacity="0.3"></use></g></g><g><g><use xlink:href="#beffC5b21" opacity="1" fill-opacity="0" stroke="#ff5722" stroke-width="1" stroke-opacity="0.3"></use></g></g><g><g><use xlink:href="#b232ZeJQkd" opacity="1" fill-opacity="0" stroke="#ff5722" stroke-width="1" stroke-opacity="0.3"></use></g></g><g><g><use xlink:href="#afdKNGXvF" opacity="1" fill-opacity="0" stroke="#ff5722" stroke-width="1" stroke-opacity="0.3"></use></g></g><g><g><use xlink:href="#a67CZvjeqx" opacity="1" fill-opacity="0" stroke="#ff5722" stroke-width="1" stroke-opacity="0.3"></use></g></g><g><g><use xlink:href="#b2FslNE5A1" opacity="1" fill-opacity="0" stroke="#ff5722" stroke-width="1" stroke-opacity="0.3"></use></g></g><g><g><use xlink:href="#b1gmaIaFaT" opacity="1" fill-opacity="0" stroke="#ff5722" stroke-width="1" stroke-opacity="0.3"></use></g></g><g><g><use xlink:href="#i4cpWOTsVJ" opacity="1" fill-opacity="0" stroke="#ff5722" stroke-width="1" stroke-opacity="0.3"></use></g></g><g><g><use xlink:href="#c11xuTLffp" opacity="1" fill-opacity="0" stroke="#ff5722" stroke-width="1" stroke-opacity="0.3"></use></g></g><g><g><use xlink:href="#dv4M5B4eu" opacity="1" fill-opacity="0" stroke="#ff5722" stroke-width="1" stroke-opacity="0.3"></use></g></g><g><g><use xlink:href="#bSGAwIx3t" opacity="1" fill-opacity="0" stroke="#ff5722" stroke-width="1" stroke-opacity="0.3"></use></g></g><g><g><filter id="shadow14713249" x="193" y="93" width="324" height="46" filterUnits="userSpaceOnUse" primitiveUnits="userSpaceOnUse"><feFlood></feFlood><feComposite in2="SourceAlpha" operator="in"></feComposite><feGaussianBlur stdDeviation="0"></feGaussianBlur><feOffset dx="0" dy="2" result="afterOffset"></feOffset><feFlood flood-color="#ff6f00" flood-opacity="1"></feFlood><feComposite in2="afterOffset" operator="in"></feComposite><feMorphology operator="dilate" radius="0"></feMorphology><feComposite in2="SourceAlpha" operator="out"></feComposite></filter><path d="M200 100L510 100L510 130L200 130L200 100Z" id="b1iJP4sR0" fill="white" fill-opacity="1" filter="url(#shadow14713249)"></path></g><use xlink:href="#h1mdnkDe3G" opacity="1" fill="#212121" fill-opacity="1"></use><g><use xlink:href="#h1mdnkDe3G" opacity="1" fill-opacity="0" stroke="#000000" stroke-width="1" stroke-opacity="1"></use></g></g><g><use xlink:href="#amAOnm7EC" opacity="1" fill="#bd152f" fill-opacity="0"></use><g><use xlink:href="#amAOnm7EC" opacity="1" fill-opacity="0" stroke="#000000" stroke-width="5" stroke-opacity="1"></use></g></g><g><use xlink:href="#b5lJ6w1hUs" opacity="1" fill="#bd152f" fill-opacity="0"></use><g><use xlink:href="#b5lJ6w1hUs" opacity="1" fill-opacity="0" stroke="#000000" stroke-width="5" stroke-opacity="1"></use></g></g><g><use xlink:href="#goNuC4ObH" opacity="1" fill="#bd152f" fill-opacity="0"></use><g><use xlink:href="#goNuC4ObH" opacity="1" fill-opacity="0" stroke="#000000" stroke-width="5" stroke-opacity="1"></use></g></g><g><g><use xlink:href="#a1pTlvM7yW" opacity="1" fill-opacity="0" stroke="#00c853" stroke-width="10" stroke-opacity="1"></use></g></g><g><g><use xlink:href="#c5ertZBjtD" opacity="1" fill-opacity="0" stroke="#00c853" stroke-width="10" stroke-opacity="1"></use></g></g><g><g><filter id="shadow7732055" x="193" y="363" width="324" height="46" filterUnits="userSpaceOnUse" primitiveUnits="userSpaceOnUse"><feFlood></feFlood><feComposite in2="SourceAlpha" operator="in"></feComposite><feGaussianBlur stdDeviation="0"></feGaussianBlur><feOffset dx="0" dy="2" result="afterOffset"></feOffset><feFlood flood-color="#ff6f00" flood-opacity="1"></feFlood><feComposite in2="afterOffset" operator="in"></feComposite><feMorphology operator="dilate" radius="0"></feMorphology><feComposite in2="SourceAlpha" operator="out"></feComposite></filter><path d="M200 370L510 370L510 400L200 400L200 370Z" id="e2WUSccyWi" fill="white" fill-opacity="1" filter="url(#shadow7732055)"></path></g><use xlink:href="#b5XPYYyreB" opacity="1" fill="#212121" fill-opacity="1"></use><g><use xlink:href="#b5XPYYyreB" opacity="1" fill-opacity="0" stroke="#000000" stroke-width="1" stroke-opacity="1"></use></g></g><g><g><filter id="shadow7382969" x="193" y="453" width="324" height="46" filterUnits="userSpaceOnUse" primitiveUnits="userSpaceOnUse"><feFlood></feFlood><feComposite in2="SourceAlpha" operator="in"></feComposite><feGaussianBlur stdDeviation="0"></feGaussianBlur><feOffset dx="0" dy="2" result="afterOffset"></feOffset><feFlood flood-color="#ff6f00" flood-opacity="1"></feFlood><feComposite in2="afterOffset" operator="in"></feComposite><feMorphology operator="dilate" radius="0"></feMorphology><feComposite in2="SourceAlpha" operator="out"></feComposite></filter><path d="M200 460L510 460L510 490L200 490L200 460Z" id="m2FCdvBs2y" fill="white" fill-opacity="1" filter="url(#shadow7382969)"></path></g><use xlink:href="#a1uawFf3Yv" opacity="1" fill="#212121" fill-opacity="1"></use><g><use xlink:href="#a1uawFf3Yv" opacity="1" fill-opacity="0" stroke="#000000" stroke-width="1" stroke-opacity="1"></use></g></g><g><use xlink:href="#c3ac3IQiQL" opacity="1" fill="#2a3f42" fill-opacity="1"></use></g><g><use xlink:href="#a6s1HREVes" opacity="1" fill="#bd152f" fill-opacity="0"></use><g><use xlink:href="#a6s1HREVes" opacity="1" fill-opacity="0" stroke="#000000" stroke-width="5" stroke-opacity="1"></use></g></g><g><use xlink:href="#d2AkjAnfjc" opacity="1" fill="#bd152f" fill-opacity="0"></use><g><use xlink:href="#d2AkjAnfjc" opacity="1" fill-opacity="0" stroke="#000000" stroke-width="5" stroke-opacity="1"></use></g></g><g><g><use xlink:href="#b3QpCRn94b" opacity="1" fill-opacity="0" stroke="#00c853" stroke-width="10" stroke-opacity="1"></use></g></g><g><g><filter id="shadow8273012" x="193" y="185.14" width="324" height="43.86" filterUnits="userSpaceOnUse" primitiveUnits="userSpaceOnUse"><feFlood></feFlood><feComposite in2="SourceAlpha" operator="in"></feComposite><feGaussianBlur stdDeviation="0"></feGaussianBlur><feOffset dx="0" dy="2" result="afterOffset"></feOffset><feFlood flood-color="#ff6f00" flood-opacity="1"></feFlood><feComposite in2="afterOffset" operator="in"></feComposite><feMorphology operator="dilate" radius="0"></feMorphology><feComposite in2="SourceAlpha" operator="out"></feComposite></filter><path d="M200 192.14L510 192.14L510 220L200 220L200 192.14Z" id="cS7hN7Eg" fill="white" fill-opacity="1" filter="url(#shadow8273012)"></path></g><use xlink:href="#b1dnxZzWF" opacity="1" fill="#212121" fill-opacity="1"></use><g><use xlink:href="#b1dnxZzWF" opacity="1" fill-opacity="0" stroke="#000000" stroke-width="1" stroke-opacity="1"></use></g></g><g><g><filter id="shadow9338530" x="193" y="273" width="324" height="46" filterUnits="userSpaceOnUse" primitiveUnits="userSpaceOnUse"><feFlood></feFlood><feComposite in2="SourceAlpha" operator="in"></feComposite><feGaussianBlur stdDeviation="0"></feGaussianBlur><feOffset dx="0" dy="2" result="afterOffset"></feOffset><feFlood flood-color="#ff6f00" flood-opacity="1"></feFlood><feComposite in2="afterOffset" operator="in"></feComposite><feMorphology operator="dilate" radius="0"></feMorphology><feComposite in2="SourceAlpha" operator="out"></feComposite></filter><path d="M200 280L510 280L510 310L200 310L200 280Z" id="b1tiYROnd" fill="white" fill-opacity="1" filter="url(#shadow9338530)"></path></g><use xlink:href="#b6TAVKogW" opacity="1" fill="#212121" fill-opacity="1"></use><g><use xlink:href="#b6TAVKogW" opacity="1" fill-opacity="0" stroke="#000000" stroke-width="1" stroke-opacity="1"></use></g></g></g></g></svg>