<?xml version="1.0" encoding="UTF-8" standalone="no"?>
<!DOCTYPE svg PUBLIC "-//W3C//DTD SVG 1.1//EN" "http://www.w3.org/Graphics/SVG/1.1/DTD/svg11.dtd">
<svg version="1.1" xmlns="http://www.w3.org/2000/svg" xmlns:xlink="http://www.w3.org/1999/xlink" preserveAspectRatio="xMidYMid meet" viewBox="0 0 640 640" width="1024" height="1024"><defs><path d="M531.25 59.77C535.92 59.76 539.71 63.55 539.72 68.22C539.83 172.53 540.17 476.99 540.28 581.3C540.29 585.97 536.5 589.76 531.83 589.77C445.52 589.86 195.06 590.14 108.75 590.23C104.08 590.24 100.29 586.45 100.28 581.78C100.17 477.47 99.83 173.01 99.72 68.7C99.71 64.03 103.5 60.24 108.17 60.23C194.48 60.14 444.94 59.86 531.25 59.77Z" id="d39z52xMlX"></path><path d="M530.83 60C535.9 60 540 64.1 540 69.17C540 173.33 540 476.67 540 580.83C540 585.9 535.9 590 530.83 590C488.67 590 371.33 590 329.17 590C324.1 590 320 585.9 320 580.83C320 476.67 320 173.33 320 69.17C320 64.1 324.1 60 329.17 60C371.33 60 488.67 60 530.83 60Z" id="d1BGg8g0z"></path><path d="M320 60L426.31 60L426.31 590L320 590L320 60Z" id="cvligjlQ"></path><path d="M180 100L520 100L520 130L180 130L180 100Z" id="e1u1Yw6IBU"></path><path d="M180 170L520 170L520 200L180 200L180 170Z" id="a26gDUn89Q"></path><path d="M180 240L520 240L520 270L180 270L180 240Z" id="fWdzdnNLl"></path><path d="M180 310L520 310L520 340L180 340L180 310Z" id="b10DbsCHr0"></path><path d="M180 380L520 380L520 410L180 410L180 380Z" id="aqv7VK0jk"></path><path d="M180 450L520 450L520 480L180 480L180 450Z" id="aXodG0ktG"></path><path d="M180 520L520 520L520 550L180 550L180 520Z" id="icko5iAGE"></path><path d="M160 180C160 191.04 151.04 200 140 200C128.96 200 120 191.04 120 180C120 168.96 128.96 160 140 160C151.04 160 160 168.96 160 180Z" id="bs39LrKaU"></path><path d="M-16.51 357.14L-16.51 357.14L-16.35 356.94L-16.04 357.3L-16.2 357.5L-16.35 357.33L-16.77 357.84L-16.94 357.64L-16.51 357.14Z" id="b1fvfes8e"></path><path d="M147.56 181.99L147.56 181.99L138.74 190L122.39 175.16L131.21 167.14L138.74 173.97L161.17 153.6L170 161.62L147.56 181.99Z" id="b14aIXSaDj"></path><path d="M160 110C160 121.04 151.04 130 140 130C128.96 130 120 121.04 120 110C120 98.96 128.96 90 140 90C151.04 90 160 98.96 160 110Z" id="c1wzYsCxb"></path><path d="M147.56 111.99L147.56 111.99L138.74 120L122.39 105.16L131.21 97.14L138.74 103.97L161.17 83.6L170 91.62L147.56 111.99Z" id="d5uKzJggXO"></path><path d="M160 250C160 261.04 151.04 270 140 270C128.96 270 120 261.04 120 250C120 238.96 128.96 230 140 230C151.04 230 160 238.96 160 250Z" id="aSu04FyH"></path><path d="M147.56 251.99L147.56 251.99L138.74 260L122.39 245.16L131.21 237.14L138.74 243.97L161.17 223.6L170 231.62L147.56 251.99Z" id="axM6wVHlN"></path><path d="M160 320C160 331.04 151.04 340 140 340C128.96 340 120 331.04 120 320C120 308.96 128.96 300 140 300C151.04 300 160 308.96 160 320Z" id="amNLMHI3"></path><path d="M160 390C160 401.04 151.04 410 140 410C128.96 410 120 401.04 120 390C120 378.96 128.96 370 140 370C151.04 370 160 378.96 160 390Z" id="aIdhA8rhv"></path><path d="M160 460C160 471.04 151.04 480 140 480C128.96 480 120 471.04 120 460C120 448.96 128.96 440 140 440C151.04 440 160 448.96 160 460Z" id="a2vubTEXZG"></path><path d="M160 530C160 541.04 151.04 550 140 550C128.96 550 120 541.04 120 530C120 518.96 128.96 510 140 510C151.04 510 160 518.96 160 530Z" id="bfKlImnFz"></path></defs><g><g><g><g><filter id="shadow8443424" x="91.72" y="51.77" width="459.56" height="549.47" filterUnits="userSpaceOnUse" primitiveUnits="userSpaceOnUse"><feFlood></feFlood><feComposite in2="SourceAlpha" operator="in"></feComposite><feGaussianBlur stdDeviation="0"></feGaussianBlur><feOffset dx="3" dy="3" result="afterOffset"></feOffset><feFlood flood-color="#000000" flood-opacity="0.5"></feFlood><feComposite in2="afterOffset" operator="in"></feComposite><feMorphology operator="dilate" radius="0"></feMorphology><feComposite in2="SourceAlpha" operator="out"></feComposite></filter><path d="M531.25 59.77C535.92 59.76 539.71 63.55 539.72 68.22C539.83 172.53 540.17 476.99 540.28 581.3C540.29 585.97 536.5 589.76 531.83 589.77C445.52 589.86 195.06 590.14 108.75 590.23C104.08 590.24 100.29 586.45 100.28 581.78C100.17 477.47 99.83 173.01 99.72 68.7C99.71 64.03 103.5 60.24 108.17 60.23C194.48 60.14 444.94 59.86 531.25 59.77Z" id="a3zfo1pQtl" fill="white" fill-opacity="1" filter="url(#shadow8443424)"></path></g><use xlink:href="#d39z52xMlX" opacity="1" fill="#fdd835" fill-opacity="1"></use><g><use xlink:href="#d39z52xMlX" opacity="1" fill-opacity="0" stroke="#000000" stroke-width="0" stroke-opacity="1"></use></g></g><g><use xlink:href="#d1BGg8g0z" opacity="1" fill="#fbc02d" fill-opacity="1"></use></g><g><use xlink:href="#cvligjlQ" opacity="1" fill="#fbc02d" fill-opacity="1"></use></g><g><use xlink:href="#e1u1Yw6IBU" opacity="1" fill="#000000" fill-opacity="1"></use><g><use xlink:href="#e1u1Yw6IBU" opacity="1" fill-opacity="0" stroke="#000000" stroke-width="1" stroke-opacity="1"></use></g></g><g><use xlink:href="#a26gDUn89Q" opacity="1" fill="#000000" fill-opacity="1"></use></g><g><use xlink:href="#fWdzdnNLl" opacity="1" fill="#000000" fill-opacity="1"></use></g><g><use xlink:href="#b10DbsCHr0" opacity="1" fill="#000000" fill-opacity="1"></use></g><g><use xlink:href="#aqv7VK0jk" opacity="1" fill="#000000" fill-opacity="1"></use></g><g><use xlink:href="#aXodG0ktG" opacity="1" fill="#000000" fill-opacity="1"></use></g><g><use xlink:href="#icko5iAGE" opacity="1" fill="#000000" fill-opacity="1"></use></g><g><use xlink:href="#bs39LrKaU" opacity="1" fill="#ffffff" fill-opacity="1"></use><g><use xlink:href="#bs39LrKaU" opacity="1" fill-opacity="0" stroke="#000000" stroke-width="2" stroke-opacity="1"></use></g></g><g><use xlink:href="#b1fvfes8e" opacity="1" fill="#2a3f42" fill-opacity="1"></use></g><g><g><filter id="shadow10668662" x="116.39" y="147.6" width="60.61" height="49.4" filterUnits="userSpaceOnUse" primitiveUnits="userSpaceOnUse"><feFlood></feFlood><feComposite in2="SourceAlpha" operator="in"></feComposite><feGaussianBlur stdDeviation="0"></feGaussianBlur><feOffset dx="1" dy="1" result="afterOffset"></feOffset><feFlood flood-color="#000000" flood-opacity="0.5"></feFlood><feComposite in2="afterOffset" operator="in"></feComposite><feMorphology operator="dilate" radius="0"></feMorphology><feComposite in2="SourceAlpha" operator="out"></feComposite></filter><path d="M147.56 181.99L147.56 181.99L138.74 190L122.39 175.16L131.21 167.14L138.74 173.97L161.17 153.6L170 161.62L147.56 181.99Z" id="c2A5aEnQss" fill="white" fill-opacity="1" filter="url(#shadow10668662)"></path></g><use xlink:href="#b14aIXSaDj" opacity="1" fill="#000000" fill-opacity="1"></use></g><g><use xlink:href="#c1wzYsCxb" opacity="1" fill="#ffffff" fill-opacity="1"></use><g><use xlink:href="#c1wzYsCxb" opacity="1" fill-opacity="0" stroke="#000000" stroke-width="2" stroke-opacity="1"></use></g></g><g><g><filter id="shadow8980299" x="116.39" y="77.6" width="60.61" height="49.4" filterUnits="userSpaceOnUse" primitiveUnits="userSpaceOnUse"><feFlood></feFlood><feComposite in2="SourceAlpha" operator="in"></feComposite><feGaussianBlur stdDeviation="0"></feGaussianBlur><feOffset dx="1" dy="1" result="afterOffset"></feOffset><feFlood flood-color="#000000" flood-opacity="0.5"></feFlood><feComposite in2="afterOffset" operator="in"></feComposite><feMorphology operator="dilate" radius="0"></feMorphology><feComposite in2="SourceAlpha" operator="out"></feComposite></filter><path d="M147.56 111.99L147.56 111.99L138.74 120L122.39 105.16L131.21 97.14L138.74 103.97L161.17 83.6L170 91.62L147.56 111.99Z" id="k1FegEoKhT" fill="white" fill-opacity="1" filter="url(#shadow8980299)"></path></g><use xlink:href="#d5uKzJggXO" opacity="1" fill="#000000" fill-opacity="1"></use></g><g><use xlink:href="#aSu04FyH" opacity="1" fill="#ffffff" fill-opacity="1"></use><g><use xlink:href="#aSu04FyH" opacity="1" fill-opacity="0" stroke="#000000" stroke-width="2" stroke-opacity="1"></use></g></g><g><g><filter id="shadow6275523" x="116.39" y="217.6" width="60.61" height="49.4" filterUnits="userSpaceOnUse" primitiveUnits="userSpaceOnUse"><feFlood></feFlood><feComposite in2="SourceAlpha" operator="in"></feComposite><feGaussianBlur stdDeviation="0"></feGaussianBlur><feOffset dx="1" dy="1" result="afterOffset"></feOffset><feFlood flood-color="#000000" flood-opacity="0.5"></feFlood><feComposite in2="afterOffset" operator="in"></feComposite><feMorphology operator="dilate" radius="0"></feMorphology><feComposite in2="SourceAlpha" operator="out"></feComposite></filter><path d="M147.56 251.99L147.56 251.99L138.74 260L122.39 245.16L131.21 237.14L138.74 243.97L161.17 223.6L170 231.62L147.56 251.99Z" id="aw2Da6Hft" fill="white" fill-opacity="1" filter="url(#shadow6275523)"></path></g><use xlink:href="#axM6wVHlN" opacity="1" fill="#000000" fill-opacity="1"></use></g><g><use xlink:href="#amNLMHI3" opacity="1" fill="#ffffff" fill-opacity="1"></use><g><use xlink:href="#amNLMHI3" opacity="1" fill-opacity="0" stroke="#000000" stroke-width="2" stroke-opacity="1"></use></g></g><g><use xlink:href="#aIdhA8rhv" opacity="1" fill="#ffffff" fill-opacity="1"></use><g><use xlink:href="#aIdhA8rhv" opacity="1" fill-opacity="0" stroke="#000000" stroke-width="2" stroke-opacity="1"></use></g></g><g><use xlink:href="#a2vubTEXZG" opacity="1" fill="#ffffff" fill-opacity="1"></use><g><use xlink:href="#a2vubTEXZG" opacity="1" fill-opacity="0" stroke="#000000" stroke-width="2" stroke-opacity="1"></use></g></g><g><use xlink:href="#bfKlImnFz" opacity="1" fill="#ffffff" fill-opacity="1"></use><g><use xlink:href="#bfKlImnFz" opacity="1" fill-opacity="0" stroke="#000000" stroke-width="2" stroke-opacity="1"></use></g></g></g></g></svg>